<?xml version="1.0" encoding="UTF-8"?>
<svg id="Layer_1" data-name="Layer 1" xmlns="http://www.w3.org/2000/svg" viewBox="0 0 1066 1029">
  <defs>
    <style>
      .cls-1, .cls-2 {
        fill: #fff;
      }

      .cls-2 {
        stroke: #000;
        stroke-miterlimit: 10;
      }
    </style>
  </defs>
  <path class="cls-1" d="M490.83.5c-30.12,0-56.08,9.47-68.01,23.14-10.04-2.03-20.8-3.14-31.99-3.14-55.23,0-100,26.86-100,60,0,7.06,2.04,13.84,5.77,20.13-1.91-.08-3.83-.13-5.77-.13-41.42,0-75,17.91-75,40s33.58,40,75,40,75-17.91,75-40c0-.64-.03-1.27-.09-1.91,8.02,1.24,16.43,1.91,25.09,1.91,55.23,0,100-26.86,100-60,41.42,0,75-17.91,75-40S532.25.5,490.83.5Z"/>
  <rect class="cls-2" x="442.83" y="988.5" width="180" height="20"/>
  <rect class="cls-2" x="422.83" y="1008.5" width="220" height="20"/>
  <polygon class="cls-1" points="1064.93 495.5 915 295.6 914.83 295.82 914.83 295.5 602.43 295.5 533 229.5 463.57 295.5 280.83 295.5 280.83 210.5 215.83 210.5 215.83 295.5 150.83 295.5 150.83 295.82 1.07 495.5 1 495.5 1 1028.5 351 1028.5 715 1028.5 1065 1028.5 1065 495.5 1064.93 495.5"/>
</svg>